<?xml version="1.0" encoding="utf-8"?>
<!-- Generator: Adobe Illustrator 24.3.0, SVG Export Plug-In . SVG Version: 6.00 Build 0)  -->
<svg version="1.1"
	 id="SvgjsSvg1005" inkscape:version="1.0.2-2 (e86c870879, 2021-01-15)" sodipodi:docname="VeryBestCareer1.svg" xmlns:cc="http://creativecommons.org/ns#" xmlns:dc="http://purl.org/dc/elements/1.1/" xmlns:inkscape="http://www.inkscape.org/namespaces/inkscape" xmlns:rdf="http://www.w3.org/1999/02/22-rdf-syntax-ns#" xmlns:sodipodi="http://sodipodi.sourceforge.net/DTD/sodipodi-0.dtd" xmlns:svg="http://www.w3.org/2000/svg" xmlns:svgjs="http://svgjs.com/svgjs"
	 xmlns="http://www.w3.org/2000/svg" xmlns:xlink="http://www.w3.org/1999/xlink" x="0px" y="0px" viewBox="0 0 78.2 78.3"
	 style="enable-background:new 0 0 78.2 78.3;" xml:space="preserve">
<style type="text/css">
	.st0{fill:#1D3B4E;}
	.st1{fill:#CC5E18;}
	.st2{fill:#FFFFFF;}
</style>
<sodipodi:namedview  bordercolor="#666666" borderopacity="1" gridtolerance="10" guidetolerance="10" id="SvgjsSodipodi:namedview1002" inkscape:current-layer="g18" inkscape:cx="464.84933" inkscape:cy="49.896122" inkscape:pageopacity="0" inkscape:pageshadow="2" inkscape:window-height="1017" inkscape:window-maximized="1" inkscape:window-width="1920" inkscape:window-x="-8" inkscape:window-y="-8" inkscape:zoom="1.0350379" objecttolerance="10" pagecolor="#ffffff" showgrid="false">
	</sodipodi:namedview>
<path class="st0" d="M21.2,56.4l0-17.3c0-5.8,2.8-10.9,7.1-14.1c2.1-1.5,4.5-2.6,7.1-3.2c1.1-0.2,2.3-0.4,3.5-0.4
	c1.2,0,2.4,0.1,3.5,0.4c2.6,0.5,5,1.6,7.1,3.2c4.3,3.2,7.1,8.4,7.1,14.1c0,5.8-2.8,10.9-7.1,14.1c-2.1,1.5-4.5,2.6-7.1,3.2
	c-1.1,0.2-2.3,0.4-3.5,0.4c-1.2,0-2.4-0.1-3.5-0.4c-2.6-0.5-5-1.6-7.1-3.2v8.2c2.2,1,4.6,1.8,7.1,2.1c1.2,0.2,2.3,0.3,3.5,0.3
	c1.2,0,2.4-0.1,3.5-0.3c2.5-0.4,4.9-1.1,7.1-2.1c2.6-1.3,5-3,7.1-5c4.4-4.5,7.1-10.6,7.1-17.3s-2.7-12.8-7.1-17.3
	c-2-2.1-4.4-3.8-7.1-5c-2.2-1-4.6-1.8-7.1-2.1c-1.2-0.2-2.3-0.3-3.5-0.3c-1.2,0-2.4,0.1-3.5,0.3c-2.5,0.4-4.9,1.1-7.1,2.1
	c-2.6,1.3-5,3-7.1,5c-4.4,4.5-7.1,10.6-7.1,17.3v20v10v9.2h7.1l0-4.6v-8.2V56.4z"/>
<path class="st1" d="M63.6,9.1c-2.2-1.8-4.5-3.4-7.1-4.6c-2.2-1.1-4.6-2.1-7.1-2.8c-2.3-0.6-4.6-1.1-7.1-1.3
	c-1.2-0.1-2.3-0.2-3.5-0.2c-1.2,0-2.4,0.1-3.5,0.2c-2.4,0.2-4.8,0.7-7.1,1.3c-2.5,0.7-4.8,1.6-7.1,2.8c-2.5,1.3-4.9,2.9-7.1,4.6v10
	c2-2.5,4.4-4.7,7.1-6.5c2.2-1.5,4.6-2.7,7.1-3.5c2.2-0.8,4.6-1.3,7.1-1.6c1.2-0.1,2.3-0.2,3.5-0.2c1.2,0,2.4,0.1,3.5,0.2
	c2.5,0.3,4.8,0.8,7.1,1.6c2.5,0.9,4.9,2.1,7.1,3.5c2.7,1.8,5.1,4,7.1,6.5c4.4,5.5,7.1,12.4,7.1,20s-2.6,14.5-7.1,20
	c-2,2.5-4.4,4.7-7.1,6.5c-2.2,1.5-4.6,2.7-7.1,3.5c-2.2,0.8-4.6,1.3-7.1,1.6c-1.2,0.1-2.3,0.2-3.5,0.2c-1.2,0-2.4-0.1-3.5-0.2
	c-2.5-0.3-4.8-0.8-7.1-1.6v7.4c2.3,0.6,4.6,1.1,7.1,1.3c1.2,0.1,2.3,0.2,3.5,0.2c1.2,0,2.4-0.1,3.5-0.2c2.4-0.2,4.8-0.7,7.1-1.3
	c2.5-0.7,4.8-1.6,7.1-2.8c2.5-1.3,4.9-2.9,7.1-4.6c2.7-2.2,5.1-4.8,7.1-7.6c4.4-6.3,7-14,7.1-22.2c0,0,0-0.1,0-0.1c0,0,0-0.1,0-0.1
	c0-8.3-2.6-15.9-7.1-22.2C68.7,13.9,66.3,11.3,63.6,9.1"/>
<path class="st1" d="M7.1,16.7V0H0v38.8c0,0,0,0.1,0,0.1v0.3c0,0,0,0.1,0,0.1c0.1,8.2,2.7,15.8,7.1,22.1V39.1V16.7z"/>
<path class="st2" d="M38.8,51.1c-6,0-10.8-4.9-10.8-10.8c0-2,0.6-4,1.6-5.7c-1-0.8-1.7-2-1.7-3.3c0-2.3,1.8-4.1,4.1-4.1
	c1.8,0,3.3,1.1,3.9,2.7c1.9-0.5,4-0.5,5.9,0c0.6-1.6,2.1-2.7,3.9-2.7c2.3,0,4.1,1.8,4.1,4.1c0,1.4-0.7,2.6-1.8,3.4
	c1,1.7,1.6,3.7,1.6,5.6C49.6,46.3,44.8,51.1,38.8,51.1 M32,29.3c-1.1,0-1.9,0.9-1.9,1.9c0,0.9,0.6,1.6,1.4,1.9l1.6,0.4l-1.1,1.3
	c-1.3,1.6-1.9,3.4-1.9,5.4c0,4.8,3.9,8.6,8.6,8.6c4.8,0,8.6-3.9,8.6-8.6c0-2-0.7-3.9-1.9-5.4l-1.1-1.4l1.7-0.4
	c0.9-0.2,1.5-1,1.5-1.9c0-1.1-0.9-1.9-1.9-1.9c-1.1,0-1.9,0.9-1.9,1.9l0.1,1.8l-1.6-0.7c-1.1-0.5-2.2-0.7-3.4-0.7
	c-1.2,0-2.3,0.2-3.3,0.7L33.9,33l0-1.7C34,30.2,33.1,29.3,32,29.3 M47.9,40.2c0,5.2-4,9.4-9,9.4s-9-4.2-9-9.4s4-9.4,9-9.4
	S47.9,35,47.9,40.2z M29.8,31.5c0-1.5,1.2-2.7,2.7-2.7c1.5,0,2.7,1.2,2.7,2.7s-1.2,2.7-2.7,2.7C31,34.2,29.8,33,29.8,31.5z
	 M42.7,31.5c0-1.5,1.2-2.7,2.7-2.7c1.5,0,2.7,1.2,2.7,2.7s-1.2,2.7-2.7,2.7C43.9,34.2,42.7,33,42.7,31.5z"/>
</svg>
